<svg width="32" height="32" viewBox="0 0 32 32" fill="none" xmlns="http://www.w3.org/2000/svg">
<rect width="32" height="32" rx="16" fill="#C04BC2"/>
<path d="M16.0001 6C17.3262 6 18.5979 6.52678 19.5356 7.46447C20.4733 8.40215 21.0001 9.67392 21.0001 11C21.0001 12.3261 20.4733 13.5979 19.5356 14.5355C18.5979 15.4732 17.3262 16 16.0001 16C14.674 16 13.4022 15.4732 12.4646 14.5355C11.5269 13.5979 11.0001 12.3261 11.0001 11C11.0001 9.67392 11.5269 8.40215 12.4646 7.46447C13.4022 6.52678 14.674 6 16.0001 6ZM16.0001 18.5C21.5251 18.5 26.0001 20.7375 26.0001 23.5V26H6.00009V23.5C6.00009 20.7375 10.4751 18.5 16.0001 18.5Z" fill="white"/>
</svg>
