<svg width="32" height="32" viewBox="0 0 32 32" fill="none" xmlns="http://www.w3.org/2000/svg">
<g clip-path="url(#clip0_206_1283)">
<path d="M16 0C7.16344 0 0 7.16344 0 16C0 24.8366 7.16344 32 16 32C24.8366 32 32 24.8366 32 16C32 7.16344 24.8366 0 16 0ZM16 5.41992C20.4049 5.41992 23.9766 8.99157 23.9766 13.3965C23.9766 14.7308 23.6109 16.4922 22.8593 17.4882L16 26.5801L9.14061 17.4883C8.31317 16.3917 8.02341 14.8697 8.02341 13.3965C8.02344 8.99157 11.5951 5.41992 16 5.41992ZM16 10.041C14.1466 10.041 12.6445 11.5431 12.6445 13.3965C12.6445 15.2499 14.1466 16.7519 16 16.7519C17.8534 16.7519 19.3555 15.2499 19.3555 13.3965C19.3555 11.5431 17.8534 10.041 16 10.041Z" fill="#1FAB89"/>
</g>
<defs>
<clipPath id="clip0_206_1283">
<rect width="32" height="32" fill="white"/>
</clipPath>
</defs>
</svg>
